<svg width="71" height="147" viewBox="0 0 71 147" fill="none" xmlns="http://www.w3.org/2000/svg">
<g clip-path="url(#clip0_31_2)">
<path d="M8.82086 26.5C8.82086 26.5 9.82086 36 11.8209 42L11.826 42.0174C12.4825 44.2234 12.5732 44.5285 15.3209 44C21.3209 43 25.3209 40.5 37.3209 33.5L35.3209 23C31.4998 24.9307 29.3862 26.3846 26.7894 29.3518C26.1379 30.0963 25.35 30.7 24.4081 31.0029C23.1315 31.4135 21.5063 31.9718 20.8209 33C20.6019 33.3284 20.4069 33.5743 20.2359 33.758C19.7546 34.2751 18.9487 34.3854 18.2701 34.5814L16.8209 35C16.751 34.7791 16.7517 34.6753 16.6192 34.2779C15.6192 31.2779 14.412 29.1012 12.8209 26.5C11.5376 26.8184 10.8519 27.0355 8.82086 26.5Z" fill="#F1C1B7"/>
<path d="M11.8209 42C9.82086 36 8.82086 26.5 8.82086 26.5C10.8519 27.0355 11.5376 26.8184 12.8209 26.5C14.412 29.1012 15.6192 31.2779 16.6192 34.2779C16.7517 34.6753 16.751 34.7791 16.8209 35M11.8209 42L11.826 42.0174M11.8209 42C11.8226 42.0058 11.8243 42.0116 11.826 42.0174M16.8209 37.5C16.8209 36.5 17.0148 35.6128 16.8209 35M16.8209 35L18.2701 34.5814C18.9487 34.3854 19.7546 34.2751 20.2359 33.758C20.4069 33.5743 20.6019 33.3284 20.8209 33C21.5063 31.9718 23.1315 31.4135 24.4081 31.0029C25.35 30.7 26.1379 30.0963 26.7894 29.3518C29.3862 26.3846 31.4998 24.9307 35.3209 23L37.3209 33.5C25.3209 40.5 21.3209 43 15.3209 44C12.5732 44.5285 12.4825 44.2234 11.826 42.0174" stroke="black" stroke-width="0.5"/>
<path d="M50.8209 83C48.4637 84.5 39.3209 86 37.3209 85C36.9236 84.8014 36.0964 84.4932 35.8209 84C35.2737 82.3403 35.1884 80.0433 34.8209 76L35.2366 81.8204C35.2807 82.4375 34.7589 82.9468 34.1442 82.877C28.4292 82.2286 24.4819 81.0019 19.5252 78.8142C19.1099 78.6309 18.8682 78.1875 19.0148 77.7579C20.0757 74.6495 24.4372 69.612 25.8209 65C26.5534 62.558 26.0545 62.5247 28.3209 61C33.3209 61 44.3209 58 50.3209 57.5C50.3209 58.5 52.6138 63.4649 52.8209 64.5C53.0279 65.5351 53.7299 67.5 53.3209 72C53.0476 75.0063 52.8209 76.5 52.3209 79.5C51.7455 82.9524 52.1685 82.1424 50.8209 83Z" fill="#507198"/>
<path d="M50.3209 57.5C44.3209 58 33.3209 61 28.3209 61L28.0589 59.8535C28.0067 59.6251 27.877 59.4205 27.6824 59.2899C27.1999 58.9663 26.9796 58.8847 27.8209 58.8847C30.6941 58.9532 36.7671 56.5435 48.8382 54.6529C49.3432 54.5739 49.8245 54.8877 49.9597 55.3691C49.979 55.4377 49.9724 55.5104 49.9513 55.5785V55.5785C49.8665 55.8526 49.8696 56.1464 49.9604 56.4186L50.3209 57.5Z" fill="#FCFCFC"/>
<path d="M65.8209 144L66.8209 139.5C67.3209 137.5 66.7058 136.556 65.8209 133.688C64.3492 131.111 63.4816 128.18 61.8209 119C61.045 114.881 59.0332 111.631 53.3209 103C51.707 99.8255 51.5483 92.3998 51.3209 82.877C50.631 84.2728 39.5949 86.7183 37.3209 85C39.1954 94.4557 41.5149 103.259 44.3209 107C47.5241 111.271 53.9493 119.695 56.3209 127C58.4038 132.454 59.1645 135.256 59.3209 139.5C58.3805 143.09 58.8209 146 60.3209 146C61.8209 146 65.6277 145.322 65.8209 144Z" fill="#F1C1B7"/>
<path d="M27.8209 58.8847C26.396 40.5417 25.0487 30.8224 29.7669 26.054C29.8026 26.018 29.8421 25.9845 29.883 25.9547C34.7394 22.4192 38.4826 20.2454 41.3059 18.9786C42.928 18.2507 44.7484 18.0701 46.484 18.4559C50.193 19.2803 51.4652 20.6394 52.0969 23.5C53.3684 28.6093 53.024 35.1874 52.3209 38C51.119 42.8075 50.1608 50.3794 49.3209 54.5776L27.8209 58.8847Z" fill="#F1C1B7"/>
<path d="M27.8209 58.8847C26.396 40.5417 25.0487 30.8224 29.7669 26.054C29.8026 26.018 29.8421 25.9845 29.883 25.9547C34.7394 22.4192 38.4826 20.2454 41.3059 18.9786C42.928 18.2507 44.7484 18.0701 46.484 18.4559C50.193 19.2803 51.4652 20.6394 52.0969 23.5C53.3684 28.6093 53.024 35.1874 52.3209 38C51.119 42.8075 50.1608 50.3794 49.3209 54.5776L27.8209 58.8847ZM27.8209 58.8847C30.6941 58.9532 36.7671 56.5435 48.8382 54.6529C49.3432 54.5739 49.8245 54.8877 49.9597 55.3691C49.979 55.4377 49.9724 55.5104 49.9513 55.5785V55.5785C49.8665 55.8526 49.8696 56.1464 49.9604 56.4186L50.3209 57.5M27.8209 58.8847C26.9796 58.8847 27.1999 58.9663 27.6824 59.2899C27.877 59.4205 28.0067 59.6251 28.0589 59.8535L28.3209 61M37.3209 85C39.3209 86 48.4637 84.5 50.8209 83C52.1685 82.1424 51.7455 82.9524 52.3209 79.5C52.8209 76.5 53.0476 75.0063 53.3209 72C53.7299 67.5 53.0279 65.5351 52.8209 64.5C52.6138 63.4649 50.3209 58.5 50.3209 57.5M37.3209 85C36.9236 84.8014 36.0964 84.4932 35.8209 84C35.2737 82.3403 35.1884 80.0433 34.8209 76L35.2366 81.8204C35.2807 82.4375 34.7589 82.9468 34.1442 82.877C28.4292 82.2286 24.4819 81.0019 19.5252 78.8142C19.1099 78.6309 18.8682 78.1875 19.0148 77.7579C20.0757 74.6495 24.4372 69.612 25.8209 65C26.5534 62.558 26.0545 62.5247 28.3209 61M37.3209 85C39.1954 94.4557 41.5149 103.259 44.3209 107C47.5241 111.271 53.9493 119.695 56.3209 127C58.4038 132.454 59.1645 135.256 59.3209 139.5C58.3805 143.09 58.8209 146 60.3209 146C61.8209 146 65.6277 145.322 65.8209 144L66.8209 139.5C67.3209 137.5 66.7058 136.556 65.8209 133.688C64.3492 131.111 63.4816 128.18 61.8209 119C61.045 114.881 59.0332 111.631 53.3209 103C51.707 99.8255 51.5483 92.3998 51.3209 82.877C50.631 84.2728 39.5949 86.7183 37.3209 85ZM50.3209 57.5C44.3209 58 33.3209 61 28.3209 61" stroke="black" stroke-width="0.5"/>
<path d="M34.3209 83.5L32.8209 86.5C30.0454 91.3904 28.298 94.2978 25.243 97.9941C24.9886 98.3018 24.9334 98.7287 25.0355 99.1146C25.8816 102.31 26.1716 113.187 24.3209 115.5C23.0477 121.178 22.6972 124.355 23.3209 130C25.7003 133.32 25.7001 134.743 23.3209 136.5C19.8209 137.5 15.6036 136.925 13.8209 138C8.38087 139.873 6.11704 139.68 4.97085 139.021C4.55111 138.78 4.53009 138.215 4.83802 137.841C7.51036 134.599 9.11633 135.234 13.8209 131C14.9028 130.026 17.6466 123.456 16.4282 112.404C16.3621 111.804 16.3542 111.197 16.404 110.595C16.7554 106.355 16.2575 105.151 15.3209 100C14.4842 96.0893 15.2639 93.1392 16.8209 89C18.3778 84.8608 18.3209 82.5 19.8209 79.5L34.3209 83.5Z" fill="#F1C1B7" stroke="black" stroke-width="0.5"/>
<path d="M8.40837 27.1133C10.2739 27.3961 11.5499 27.2096 13.4549 26.4039C13.7544 26.2772 13.9032 25.9407 13.8037 25.631C14.3092 25.4485 14.5827 24.9111 14.4746 24.3846L13.5797 20.026C13.4658 19.4714 12.8878 19.1487 12.3602 19.3311C14.0712 18.6635 13.0383 16.8715 12.6448 14.7083C11.4449 0.794689 -3.19183 5.35267 2.06006 14.1947C2.50449 14.9429 3.35551 15.3391 4.22568 15.3259C4.84333 15.901 5.31242 16.4087 5.68018 16.9182C6.36504 17.8669 6.69851 18.8217 6.98567 20.2286C6.73637 20.1801 6.50799 20.3785 6.52771 20.6317C6.66601 22.4071 7.03829 24.4952 7.24832 25.9475C7.28319 26.1887 7.52156 26.3463 7.75634 26.281C7.72802 26.6864 8.00652 27.0524 8.40837 27.1133Z" fill="#D9D9D9"/>
<path d="M13.8037 25.631V25.631C14.3092 25.4485 14.5827 24.9111 14.4746 24.3846L13.5797 20.026C13.4621 19.4536 12.8503 19.1283 12.3098 19.3502V19.3502M13.8037 25.631C11.5985 26.4274 10.7787 25.915 10.4342 23.4469C10.1468 21.3265 10.0585 20.6284 10.8098 20.0806M13.8037 25.631V25.631C13.9032 25.9407 13.7544 26.2772 13.4549 26.4039C11.5499 27.2096 10.2739 27.3961 8.40837 27.1133C8.00652 27.0524 7.72802 26.6864 7.75634 26.281V26.281M7.75634 26.281L8.38862 26.105L7.49575 20.4465M7.75634 26.281V26.281C7.52156 26.3463 7.2832 26.1887 7.24832 25.9475C7.03829 24.4952 6.66601 22.4071 6.52771 20.6317C6.50799 20.3785 6.73637 20.1801 6.98567 20.2286V20.2286M12.3098 19.3502C14.0913 18.6982 13.0421 16.8924 12.6448 14.7083C11.4449 0.794689 -3.19183 5.35267 2.06006 14.1947C2.50449 14.9429 3.35551 15.3391 4.22568 15.3259V15.3259M12.3098 19.3502C11.6177 19.6344 11.1351 19.8434 10.8098 20.0806M6.98567 20.2286L7.47645 20.3242L7.49575 20.4465M6.98567 20.2286C6.69851 18.8217 6.36504 17.8669 5.68018 16.9182C5.31242 16.4087 4.84333 15.901 4.22568 15.3259M4.22568 15.3259C4.96304 14.8641 5.11835 13.3714 4.68361 11.1209C4.37688 9.53306 7.71081 8.65393 8.21466 11.2989L9.53514 20.2156M10.8098 20.0806C9.79466 20.4112 9.11753 20.5239 7.49575 20.4465" stroke="black" stroke-width="0.5"/>
<path d="M25.8555 23.0993C25.2115 23.3473 24.4853 23.2484 23.9332 22.8343L23.2209 22.3C22.9691 22.1111 22.8209 21.8148 22.8209 21.5V20.2036V20.2036C22.2984 20.1327 22.1417 19.4528 22.5804 19.1603L22.8209 19V19C22.2104 18.7965 22.101 17.9799 22.6364 17.6229L22.8209 17.5V17L31.8209 13.5L32.1049 14.7306L33.3209 20L26.1141 23C26.0292 23.0324 25.943 23.0655 25.8555 23.0993Z" fill="#A76161"/>
<path d="M41.3209 19C37.8209 20.2036 35.3209 22.5 32.3209 24.5C30.9394 21.4197 29.6929 21.6319 26.1141 23L33.3209 20L32.1049 14.7306C33.3879 14.2145 34.2541 13.6691 34.7489 13C36.3054 15.1168 39.3209 17 41.3209 19Z" fill="#F1C1B7"/>
<path d="M22.8209 15.7274C19.8209 15.5 21.3209 13.5 22.3209 12C21.5709 11.0223 21.4657 10.4751 21.8209 9.5C21.804 7.96957 21.9558 6.72241 22.3445 5.69433C24.2268 5.24683 25.7669 5.69993 31.6064 11C32.9871 8.63951 33.7253 8.28793 34.8209 9.34506C35.408 10.9505 35.4222 12.0897 34.7489 13C34.2541 13.6691 33.3879 14.2145 32.1049 14.7306L31.8209 13.5L22.8209 17V15.7274Z" fill="#F1C1B7"/>
<path d="M31.3209 1C38.2592 1.97023 39.9926 5.75326 40.3209 15C40.3521 15.8814 41.3209 18.017 41.3209 19C39.3209 17 36.3054 15.1168 34.7489 13C35.4222 12.0897 35.408 10.9505 34.8209 9.34506C33.7253 8.28793 32.9871 8.63951 31.6064 11C25.7669 5.69993 24.2268 5.24683 22.3445 5.69433C23.3512 3.03167 25.9475 1.83859 31.3209 1Z" fill="#A76161"/>
<path d="M41.3209 19C37.8209 20.2036 35.3209 22.5 32.3209 24.5C30.9394 21.4197 29.6929 21.6319 26.1141 23M41.3209 19C41.3209 18.017 40.3521 15.8814 40.3209 15C39.9926 5.75326 38.2592 1.97023 31.3209 1C25.9475 1.83859 23.3512 3.03167 22.3445 5.69433M41.3209 19C39.3209 17 36.3054 15.1168 34.7489 13M22.8209 17.5L22.6364 17.6229C22.101 17.9799 22.2104 18.7965 22.8209 19V19L22.5804 19.1603C22.1417 19.4528 22.2984 20.1327 22.8209 20.2036V20.2036V21.5C22.8209 21.8148 22.9691 22.1111 23.2209 22.3L23.9332 22.8343C24.4853 23.2484 25.2115 23.3473 25.8555 23.0993C25.943 23.0655 26.0292 23.0324 26.1141 23M22.8209 17.5C22.8209 17.2971 22.8209 17.1354 22.8209 17M22.8209 17.5V17M22.8209 15.7274C19.8209 15.5 21.3209 13.5 22.3209 12C21.5709 11.0223 21.4657 10.4751 21.8209 9.5C21.804 7.96957 21.9558 6.72241 22.3445 5.69433M22.8209 15.7274C22.8209 16.3432 22.8209 16.4682 22.8209 17M22.8209 15.7274V17M32.1049 14.7306L31.8209 13.5M32.1049 14.7306L33.3209 20M32.1049 14.7306C33.3879 14.2145 34.2541 13.6691 34.7489 13M31.3209 11.5C31.4191 11.3243 31.5142 11.1576 31.6064 11M33.3209 20L31.8209 13.5M33.3209 20L26.1141 23M31.8209 13.5L22.8209 17M31.6064 11C32.9871 8.63951 33.7253 8.28793 34.8209 9.34506C35.408 10.9505 35.4222 12.0897 34.7489 13M31.6064 11C25.7669 5.69993 24.2268 5.24683 22.3445 5.69433" stroke="black" stroke-width="0.5"/>
<path d="M21.0329 23.9637C22.9181 23.8848 24.135 23.4579 25.8509 22.303C26.1207 22.1214 26.2024 21.7626 26.0456 21.4777C26.5069 21.202 26.6727 20.6222 26.466 20.1261L24.7546 16.0188C24.5369 15.4961 23.9079 15.2898 23.4249 15.5697C24.9768 14.5874 23.6204 13.0259 22.8209 10.9777C18.9843 -2.45021 5.4883 4.82066 12.333 12.4961C12.9122 13.1457 13.8233 13.372 14.6749 13.1928C15.391 13.6392 15.9485 14.0479 16.4068 14.4777C17.2604 15.2781 17.7702 16.1516 18.3209 17.4777C18.0669 17.4777 17.8806 17.7161 17.9484 17.9608C18.4234 19.6771 19.1878 21.6556 19.6715 23.041C19.7518 23.2711 20.0159 23.3802 20.2339 23.2712C20.2835 23.6746 20.6268 23.9807 21.0329 23.9637Z" fill="#D9D9D9"/>
<path d="M26.0456 21.4777V21.4777C26.5069 21.202 26.6727 20.6222 26.466 20.1261L24.7546 16.0188C24.5299 15.4794 23.8672 15.277 23.379 15.5981V15.5981M26.0456 21.4777C24.0332 22.6809 23.1306 22.3345 22.3209 19.9777C21.6335 17.9513 21.4135 17.283 22.0462 16.6017M26.0456 21.4777V21.4777C26.2024 21.7626 26.1207 22.1214 25.8509 22.303C24.135 23.4579 22.9181 23.8848 21.0329 23.9637C20.6268 23.9807 20.2835 23.6746 20.2339 23.2712V23.2712M20.2339 23.2712L20.8209 22.9777L18.8632 17.5941M20.2339 23.2712V23.2712C20.0159 23.3802 19.7518 23.2711 19.6715 23.041C19.1878 21.6556 18.4234 19.6771 17.9484 17.9608C17.8806 17.7161 18.0669 17.4777 18.3209 17.4777V17.4777M23.379 15.5981C25.0031 14.6176 23.6282 13.0457 22.8209 10.9777C18.9843 -2.45021 5.4883 4.82066 12.333 12.4961C12.9122 13.1457 13.8233 13.372 14.6749 13.1928V13.1928M23.379 15.5981C22.754 16.0093 22.3202 16.3067 22.0462 16.6017M18.3209 17.4777L18.8209 17.4777L18.8632 17.5941M18.3209 17.4777C17.7702 16.1516 17.2604 15.2781 16.4068 14.4777C15.9485 14.0479 15.391 13.6392 14.6749 13.1928M14.6749 13.1928C15.3104 12.5985 15.1776 11.1037 14.3209 8.97773C13.7164 7.47773 16.8209 5.97773 17.8209 8.47773L20.8209 16.9777M22.0462 16.6017C21.113 17.1202 20.4699 17.3602 18.8632 17.5941" stroke="black" stroke-width="0.5"/>
<path d="M38.3209 23.5C40.2363 16.3173 49.3255 16.9306 51.5654 21.8265C51.7589 22.2496 51.723 22.735 51.544 23.1645L49.3209 28.5C46.7617 34.6648 45.1508 37.3241 41.8209 40C38.7423 42.0005 36.3209 45 34.3209 45.5C32.3209 46 29.8209 44 29.3209 43.5C28.8209 43 27.9924 41.1479 26.8209 39C23.7455 33.2412 22.6111 29.9745 21.3989 24.3639C21.3586 24.1774 21.5016 24.0004 21.6923 23.9923C23.7724 23.9043 24.7592 23.0741 26.0361 22.1934C26.1859 22.0901 26.3919 22.1469 26.4721 22.3103C28.5568 26.5609 30.3578 29.0618 34.3209 32C34.9949 31.8047 34.8209 29.5 36.3209 28C37.8209 26.5 37.3209 27.5 38.3209 23.5Z" fill="#F1C1B7"/>
<path d="M34.3209 32C34.9949 31.8047 34.8209 29.5 36.3209 28C37.8209 26.5 37.3209 27.5 38.3209 23.5C40.2363 16.3173 49.3255 16.9306 51.5654 21.8265C51.7589 22.2496 51.723 22.735 51.544 23.1645L49.3209 28.5C46.7617 34.6648 45.1508 37.3241 41.8209 40C38.7423 42.0005 36.3209 45 34.3209 45.5C32.3209 46 29.8209 44 29.3209 43.5C28.8209 43 27.9924 41.1479 26.8209 39C23.7455 33.2412 22.6111 29.9745 21.3989 24.3639C21.3586 24.1774 21.5016 24.0004 21.6923 23.9923C23.7724 23.9043 24.7592 23.0741 26.0361 22.1934C26.1859 22.0901 26.3919 22.1469 26.4721 22.3103C28.5568 26.5609 30.3578 29.0618 34.3209 32ZM34.3209 32C35.1753 33.2042 35.3369 33.8571 35.3209 35" stroke="black" stroke-width="0.5"/>
<path d="M42.8209 26C42.8209 29.5899 44.8356 32.5 47.3209 32.5C49.8062 32.5 51.8209 29.5899 51.8209 26C52.3209 21 49.8062 19.5 47.3209 19.5C44.8356 19.5 42.8209 22.4101 42.8209 26Z" fill="#F1C1B7"/>
</g>
<defs>
<clipPath id="clip0_31_2">
<rect width="71" height="147" fill="white" transform="matrix(-1 0 0 1 71 0)"/>
</clipPath>
</defs>
</svg>
