<svg width="71" height="147" viewBox="0 0 71 147" fill="none" xmlns="http://www.w3.org/2000/svg">
<g clip-path="url(#clip0_20_4)">
<path d="M62.1791 26.5C62.1791 26.5 61.1791 36 59.1791 42L59.174 42.0174C58.5175 44.2234 58.4268 44.5285 55.6791 44C49.6791 43 45.6791 40.5 33.6791 33.5L35.6791 23C39.5002 24.9307 41.6138 26.3846 44.2106 29.3518C44.8621 30.0963 45.65 30.7 46.5919 31.0029C47.8685 31.4135 49.4937 31.9718 50.1791 33C50.3981 33.3284 50.5931 33.5743 50.7641 33.758C51.2454 34.2751 52.0513 34.3854 52.7299 34.5814L54.1791 35C54.249 34.7791 54.2483 34.6753 54.3808 34.2779C55.3808 31.2779 56.588 29.1012 58.1791 26.5C59.4624 26.8184 60.1481 27.0355 62.1791 26.5Z" fill="#F1C1B7"/>
<path d="M59.1791 42C61.1791 36 62.1791 26.5 62.1791 26.5C60.1481 27.0355 59.4624 26.8184 58.1791 26.5C56.588 29.1012 55.3808 31.2779 54.3808 34.2779C54.2483 34.6753 54.249 34.7791 54.1791 35M59.1791 42L59.174 42.0174M59.1791 42C59.1774 42.0058 59.1757 42.0116 59.174 42.0174M54.1791 37.5C54.1791 36.5 53.9852 35.6128 54.1791 35M54.1791 35L52.7299 34.5814C52.0513 34.3854 51.2454 34.2751 50.7641 33.758C50.5931 33.5743 50.3981 33.3284 50.1791 33C49.4937 31.9718 47.8685 31.4135 46.5919 31.0029C45.65 30.7 44.8621 30.0963 44.2106 29.3518C41.6138 26.3846 39.5002 24.9307 35.6791 23L33.6791 33.5C45.6791 40.5 49.6791 43 55.6791 44C58.4268 44.5285 58.5175 44.2234 59.174 42.0174" stroke="black" stroke-width="0.5"/>
<path d="M20.1791 83C22.5363 84.5 31.6791 86 33.6791 85C34.0764 84.8014 34.9036 84.4932 35.1791 84C35.7263 82.3403 35.8116 80.0433 36.1791 76L35.7634 81.8204C35.7193 82.4375 36.2411 82.9468 36.8558 82.877C42.5708 82.2286 46.5181 81.0019 51.4748 78.8142C51.8901 78.6309 52.1318 78.1875 51.9852 77.7579C50.9243 74.6495 46.5628 69.612 45.1791 65C44.4466 62.558 44.9455 62.5247 42.6791 61C37.6791 61 26.6791 58 20.6791 57.5C20.6791 58.5 18.3862 63.4649 18.1791 64.5C17.9721 65.5351 17.2701 67.5 17.6791 72C17.9524 75.0063 18.1791 76.5 18.6791 79.5C19.2545 82.9524 18.8315 82.1424 20.1791 83Z" fill="#FF7373"/>
<path d="M20.6791 57.5C26.6791 58 37.6791 61 42.6791 61L42.9411 59.8535C42.9933 59.6251 43.123 59.4205 43.3176 59.2899C43.8001 58.9663 44.0204 58.8847 43.1791 58.8847C40.3059 58.9532 34.2329 56.5435 22.1618 54.6529C21.6568 54.5739 21.1755 54.8877 21.0403 55.3691C21.021 55.4377 21.0276 55.5104 21.0487 55.5785C21.1335 55.8526 21.1304 56.1464 21.0396 56.4186L20.6791 57.5Z" fill="#FCFCFC"/>
<path d="M5.17915 144L4.17915 139.5C3.67915 137.5 4.29422 136.556 5.17915 133.688C6.65079 131.111 7.51841 128.18 9.17915 119C9.955 114.881 11.9668 111.631 17.6791 103C19.293 99.8255 19.4517 92.3998 19.6791 82.877C20.369 84.2728 31.4051 86.7183 33.6791 85C31.8046 94.4557 29.4851 103.259 26.6791 107C23.4759 111.271 17.0507 119.695 14.6791 127C12.5962 132.454 11.8355 135.256 11.6791 139.5C12.6195 143.09 12.1791 146 10.6791 146C9.17915 146 5.37229 145.322 5.17915 144Z" fill="#F1C1B7"/>
<path d="M43.1791 58.8847C44.604 40.5417 45.9513 30.8224 41.2331 26.054C41.1974 26.018 41.1579 25.9845 41.117 25.9547C36.2606 22.4192 32.5174 20.2454 29.6941 18.9786C28.072 18.2507 26.2516 18.0701 24.516 18.4559C20.807 19.2803 19.5348 20.6394 18.9031 23.5C17.6316 28.6094 17.976 35.1874 18.6791 38C19.881 42.8075 20.8392 50.3794 21.6791 54.5776L43.1791 58.8847Z" fill="#F1C1B7"/>
<path d="M43.1791 58.8847C44.604 40.5417 45.9513 30.8224 41.2331 26.054C41.1974 26.018 41.1579 25.9845 41.117 25.9547C36.2606 22.4192 32.5174 20.2454 29.6941 18.9786C28.072 18.2507 26.2516 18.0701 24.516 18.4559C20.807 19.2803 19.5348 20.6394 18.9031 23.5C17.6316 28.6093 17.976 35.1874 18.6791 38C19.881 42.8075 20.8392 50.3794 21.6791 54.5776L43.1791 58.8847ZM43.1791 58.8847C40.3059 58.9532 34.2329 56.5435 22.1618 54.6529C21.6568 54.5739 21.1755 54.8877 21.0403 55.3691C21.021 55.4377 21.0276 55.5104 21.0487 55.5785V55.5785C21.1335 55.8526 21.1304 56.1464 21.0396 56.4186L20.6791 57.5M43.1791 58.8847C44.0204 58.8847 43.8001 58.9663 43.3176 59.2899C43.123 59.4205 42.9933 59.6251 42.9411 59.8535L42.6791 61M33.6791 85C31.6791 86 22.5363 84.5 20.1791 83C18.8315 82.1424 19.2545 82.9524 18.6791 79.5C18.1791 76.5 17.9524 75.0063 17.6791 72C17.2701 67.5 17.9721 65.5351 18.1791 64.5C18.3862 63.4649 20.6791 58.5 20.6791 57.5M33.6791 85C34.0764 84.8014 34.9036 84.4932 35.1791 84C35.7263 82.3403 35.8116 80.0433 36.1791 76L35.7634 81.8204C35.7193 82.4375 36.2411 82.9468 36.8558 82.877C42.5708 82.2286 46.5181 81.0019 51.4748 78.8142C51.8901 78.6309 52.1318 78.1875 51.9852 77.7579C50.9243 74.6495 46.5628 69.612 45.1791 65C44.4466 62.558 44.9455 62.5247 42.6791 61M33.6791 85C31.8046 94.4557 29.4851 103.259 26.6791 107C23.4759 111.271 17.0507 119.695 14.6791 127C12.5962 132.454 11.8355 135.256 11.6791 139.5C12.6195 143.09 12.1791 146 10.6791 146C9.17915 146 5.37229 145.322 5.17915 144L4.17915 139.5C3.67915 137.5 4.29422 136.556 5.17915 133.688C6.65079 131.111 7.51841 128.18 9.17915 119C9.955 114.881 11.9668 111.631 17.6791 103C19.293 99.8255 19.4517 92.3998 19.6791 82.877C20.369 84.2728 31.4051 86.7183 33.6791 85ZM20.6791 57.5C26.6791 58 37.6791 61 42.6791 61" stroke="black" stroke-width="0.5"/>
<path d="M36.6791 83.5L38.1791 86.5C40.9546 91.3904 42.702 94.2978 45.757 97.9941C46.0114 98.3018 46.0666 98.7287 45.9645 99.1146C45.1184 102.31 44.8284 113.187 46.6791 115.5C47.9523 121.178 48.3028 124.355 47.6791 130C45.2997 133.32 45.2999 134.743 47.6791 136.5C51.1791 137.5 55.3964 136.925 57.1791 138C62.6191 139.873 64.883 139.68 66.0291 139.021C66.4489 138.78 66.4699 138.215 66.162 137.841C63.4896 134.599 61.8837 135.234 57.1791 131C56.0972 130.026 53.3534 123.456 54.5718 112.404C54.6379 111.804 54.6458 111.197 54.596 110.595C54.2446 106.355 54.7425 105.151 55.6791 100C56.5158 96.0893 55.7361 93.1392 54.1791 89C52.6222 84.8608 52.6791 82.5 51.1791 79.5L36.6791 83.5Z" fill="#F1C1B7" stroke="black" stroke-width="0.5"/>
<path d="M62.5916 27.1133C60.7261 27.3961 59.4501 27.2096 57.5451 26.4039C57.2456 26.2772 57.0968 25.9407 57.1963 25.631C56.6908 25.4485 56.4173 24.9111 56.5254 24.3846L57.4203 20.026C57.5342 19.4714 58.1122 19.1487 58.6398 19.3311C56.9288 18.6635 57.9617 16.8715 58.3552 14.7083C59.5551 0.794689 74.1918 5.35267 68.9399 14.1947C68.4955 14.9429 67.6445 15.3391 66.7743 15.3259C66.1567 15.901 65.6876 16.4087 65.3198 16.9182C64.635 17.8669 64.3015 18.8217 64.0143 20.2286C64.2636 20.1801 64.492 20.3785 64.4723 20.6317C64.334 22.4071 63.9617 24.4952 63.7517 25.9475C63.7168 26.1887 63.4784 26.3463 63.2437 26.281C63.272 26.6864 62.9935 27.0524 62.5916 27.1133Z" fill="#D9D9D9"/>
<path d="M57.1963 25.631V25.631C56.6908 25.4485 56.4173 24.9111 56.5254 24.3846L57.4203 20.026C57.5379 19.4536 58.1497 19.1283 58.6902 19.3502V19.3502M57.1963 25.631C59.4015 26.4274 60.2213 25.915 60.5658 23.4469C60.8532 21.3265 60.9415 20.6284 60.1902 20.0806M57.1963 25.631V25.631C57.0968 25.9407 57.2456 26.2772 57.5451 26.4039C59.4501 27.2096 60.7261 27.3961 62.5916 27.1133C62.9935 27.0524 63.272 26.6864 63.2437 26.281V26.281M63.2437 26.281L62.6114 26.105L63.5043 20.4465M63.2437 26.281V26.281C63.4784 26.3463 63.7168 26.1887 63.7517 25.9475C63.9617 24.4952 64.334 22.4071 64.4723 20.6317C64.492 20.3785 64.2636 20.1801 64.0143 20.2286V20.2286M58.6902 19.3502C56.9087 18.6982 57.9579 16.8924 58.3552 14.7083C59.5551 0.794689 74.1918 5.35267 68.9399 14.1947C68.4955 14.9429 67.6445 15.3391 66.7743 15.3259V15.3259M58.6902 19.3502C59.3823 19.6344 59.8649 19.8434 60.1902 20.0806M64.0143 20.2286L63.5235 20.3242L63.5043 20.4465M64.0143 20.2286C64.3015 18.8217 64.635 17.8669 65.3198 16.9182C65.6876 16.4087 66.1567 15.901 66.7743 15.3259M66.7743 15.3259C66.037 14.8641 65.8817 13.3714 66.3164 11.1209C66.6231 9.53306 63.2892 8.65393 62.7853 11.2989L61.4649 20.2156M60.1902 20.0806C61.2053 20.4112 61.8825 20.5239 63.5043 20.4465" stroke="black" stroke-width="0.5"/>
<path d="M45.1445 23.0993C45.7885 23.3473 46.5147 23.2484 47.0668 22.8343L47.7791 22.3C48.0309 22.1111 48.1791 21.8148 48.1791 21.5V20.2036C48.7016 20.1327 48.8583 19.4528 48.4196 19.1603L48.1791 19C48.7896 18.7965 48.899 17.9799 48.3636 17.6229L48.1791 17.5V17L39.1791 13.5L38.8951 14.7306L37.6791 20L44.8859 23C44.9708 23.0324 45.057 23.0655 45.1445 23.0993Z" fill="#A76161"/>
<path d="M29.6791 19C33.1791 20.2036 35.6791 22.5 38.6791 24.5C40.0606 21.4197 41.3071 21.6319 44.8859 23L37.6791 20L38.8951 14.7306C37.6121 14.2145 36.7459 13.6691 36.2511 13C34.6946 15.1168 31.6791 17 29.6791 19Z" fill="#F1C1B7"/>
<path d="M48.1791 15.7274C51.1791 15.5 49.6791 13.5 48.6791 12C49.4291 11.0223 49.5343 10.4751 49.1791 9.5C49.196 7.96957 49.0442 6.72241 48.6555 5.69433C46.7732 5.24683 45.2331 5.69993 39.3936 11C38.0129 8.63951 37.2747 8.28793 36.1791 9.34506C35.592 10.9505 35.5778 12.0897 36.2511 13C36.7459 13.6691 37.6121 14.2145 38.8951 14.7306L39.1791 13.5L48.1791 17V15.7274Z" fill="#F1C1B7"/>
<path d="M39.6791 1C32.7408 1.97023 31.0074 5.75326 30.6791 15C30.6479 15.8814 29.6791 18.017 29.6791 19C31.6791 17 34.6946 15.1168 36.2511 13C35.5778 12.0897 35.592 10.9505 36.1791 9.34506C37.2747 8.28793 38.0129 8.63951 39.3936 11C45.2331 5.69993 46.7732 5.24683 48.6555 5.69433C47.6488 3.03167 45.0525 1.83859 39.6791 1Z" fill="#A76161"/>
<path d="M29.6791 19C33.1791 20.2036 35.6791 22.5 38.6791 24.5C40.0606 21.4197 41.3071 21.6319 44.8859 23M29.6791 19C29.6791 18.017 30.6479 15.8814 30.6791 15C31.0074 5.75326 32.7408 1.97023 39.6791 1C45.0525 1.83859 47.6488 3.03167 48.6555 5.69433M29.6791 19C31.6791 17 34.6946 15.1168 36.2511 13M48.1791 17.5L48.3636 17.6229C48.899 17.9799 48.7896 18.7965 48.1791 19V19L48.4196 19.1603C48.8583 19.4528 48.7016 20.1327 48.1791 20.2036V20.2036V21.5C48.1791 21.8148 48.0309 22.1111 47.7791 22.3L47.0668 22.8343C46.5147 23.2484 45.7885 23.3473 45.1445 23.0993C45.057 23.0655 44.9708 23.0324 44.8859 23M48.1791 17.5C48.1791 17.2971 48.1791 17.1354 48.1791 17M48.1791 17.5V17M48.1791 15.7274C51.1791 15.5 49.6791 13.5 48.6791 12C49.4291 11.0223 49.5343 10.4751 49.1791 9.5C49.196 7.96957 49.0442 6.72241 48.6555 5.69433M48.1791 15.7274C48.1791 16.3432 48.1791 16.4682 48.1791 17M48.1791 15.7274V17M38.8951 14.7306L39.1791 13.5M38.8951 14.7306L37.6791 20M38.8951 14.7306C37.6121 14.2145 36.7459 13.6691 36.2511 13M39.6791 11.5C39.5809 11.3243 39.4858 11.1576 39.3936 11M37.6791 20L39.1791 13.5M37.6791 20L44.8859 23M39.1791 13.5L48.1791 17M39.3936 11C38.0129 8.63951 37.2747 8.28793 36.1791 9.34506C35.592 10.9505 35.5778 12.0897 36.2511 13M39.3936 11C45.2331 5.69993 46.7732 5.24683 48.6555 5.69433" stroke="black" stroke-width="0.5"/>
<path d="M49.9671 23.9637C48.0819 23.8848 46.865 23.4579 45.1491 22.303C44.8793 22.1214 44.7976 21.7626 44.9544 21.4777C44.4931 21.202 44.3273 20.6222 44.534 20.1261L46.2454 16.0188C46.4631 15.4961 47.0921 15.2898 47.5751 15.5697C46.0232 14.5874 47.3796 13.0259 48.1791 10.9777C52.0157 -2.45021 65.5117 4.82066 58.667 12.4961C58.0878 13.1457 57.1767 13.372 56.3251 13.1928C55.609 13.6392 55.0515 14.0479 54.5932 14.4777C53.7396 15.2781 53.2298 16.1516 52.6791 17.4777C52.9331 17.4777 53.1194 17.7161 53.0516 17.9608C52.5766 19.6771 51.8122 21.6556 51.3285 23.041C51.2482 23.2711 50.9841 23.3802 50.7661 23.2712C50.7165 23.6746 50.3732 23.9807 49.9671 23.9637Z" fill="#D9D9D9"/>
<path d="M44.9544 21.4777V21.4777C44.4931 21.202 44.3273 20.6222 44.534 20.1261L46.2454 16.0188C46.4701 15.4794 47.1328 15.277 47.621 15.5981V15.5981M44.9544 21.4777C46.9668 22.6809 47.8694 22.3345 48.6791 19.9777C49.3665 17.9513 49.5865 17.283 48.9538 16.6017M44.9544 21.4777V21.4777C44.7976 21.7626 44.8793 22.1214 45.1491 22.303C46.865 23.4579 48.0819 23.8848 49.9671 23.9637C50.3732 23.9807 50.7165 23.6746 50.7661 23.2712V23.2712M50.7661 23.2712L50.1791 22.9777L52.1368 17.5941M50.7661 23.2712V23.2712C50.9841 23.3802 51.2482 23.2711 51.3285 23.041C51.8122 21.6556 52.5766 19.6771 53.0516 17.9608C53.1194 17.7161 52.9331 17.4777 52.6791 17.4777V17.4777M47.621 15.5981C45.9969 14.6176 47.3718 13.0457 48.1791 10.9777C52.0157 -2.45021 65.5117 4.82066 58.667 12.4961C58.0878 13.1457 57.1767 13.372 56.3251 13.1928V13.1928M47.621 15.5981C48.246 16.0093 48.6798 16.3067 48.9538 16.6017M52.6791 17.4777L52.1791 17.4777L52.1368 17.5941M52.6791 17.4777C53.2298 16.1516 53.7396 15.2781 54.5932 14.4777C55.0515 14.0479 55.609 13.6392 56.3251 13.1928M56.3251 13.1928C55.6896 12.5985 55.8224 11.1037 56.6791 8.97773C57.2836 7.47773 54.1791 5.97773 53.1791 8.47773L50.1791 16.9777M48.9538 16.6017C49.887 17.1202 50.5301 17.3602 52.1368 17.5941" stroke="black" stroke-width="0.5"/>
<path d="M32.6791 23.5C30.7637 16.3173 21.6745 16.9306 19.4346 21.8265C19.2411 22.2496 19.277 22.735 19.456 23.1645L21.6791 28.5C24.2383 34.6648 25.8492 37.3241 29.1791 40C32.2577 42.0005 34.6791 45 36.6791 45.5C38.6791 46 41.1791 44 41.6791 43.5C42.1791 43 43.0076 41.1479 44.1791 39C47.2545 33.2412 48.3889 29.9745 49.6011 24.3639C49.6414 24.1774 49.4984 24.0004 49.3077 23.9923C47.2276 23.9043 46.2408 23.0741 44.9639 22.1934C44.8141 22.0901 44.6081 22.1469 44.5279 22.3103C42.4432 26.5609 40.6422 29.0618 36.6791 32C36.0051 31.8047 36.1791 29.5 34.6791 28C33.1791 26.5 33.6791 27.5 32.6791 23.5Z" fill="#F1C1B7"/>
<path d="M36.6791 32C36.0051 31.8047 36.1791 29.5 34.6791 28C33.1791 26.5 33.6791 27.5 32.6791 23.5C30.7637 16.3173 21.6745 16.9306 19.4346 21.8265C19.2411 22.2496 19.277 22.735 19.456 23.1645L21.6791 28.5C24.2383 34.6648 25.8492 37.3241 29.1791 40C32.2577 42.0005 34.6791 45 36.6791 45.5C38.6791 46 41.1791 44 41.6791 43.5C42.1791 43 43.0076 41.1479 44.1791 39C47.2545 33.2412 48.3889 29.9745 49.6011 24.3639C49.6414 24.1774 49.4984 24.0004 49.3077 23.9923C47.2276 23.9043 46.2408 23.0741 44.9639 22.1934C44.8141 22.0901 44.6081 22.1469 44.5279 22.3103C42.4432 26.5609 40.6422 29.0618 36.6791 32ZM36.6791 32C35.8247 33.2042 35.6631 33.8571 35.6791 35" stroke="black" stroke-width="0.5"/>
<path d="M28.1791 26C28.1791 29.5899 26.1644 32.5 23.6791 32.5C21.1938 32.5 19.1791 29.5899 19.1791 26C18.6791 21 21.1938 19.5 23.6791 19.5C26.1644 19.5 28.1791 22.4101 28.1791 26Z" fill="#F1C1B7"/>
</g>
<defs>
<clipPath id="clip0_20_4">
<rect width="71" height="147" fill="white"/>
</clipPath>
</defs>
</svg>
